<mxfile host="app.diagrams.net" modified="2023-12-03T09:19:38.604Z" agent="Mozilla/5.0 (Windows NT 10.0; Win64; x64) AppleWebKit/537.36 (KHTML, like Gecko) Chrome/119.0.0.0 Safari/537.36" etag="u3O94NNa4Bc5Noqh5MWK" version="22.1.5" type="github">
  <diagram name="第 1 页" id="4fEDvUzm2MibnBbObEXU">
    <mxGraphModel dx="1114" dy="570" grid="1" gridSize="10" guides="1" tooltips="1" connect="1" arrows="1" fold="1" page="1" pageScale="1" pageWidth="827" pageHeight="1169" math="0" shadow="0">
      <root>
        <mxCell id="0" />
        <mxCell id="1" parent="0" />
        <mxCell id="PWp1Dongy2g5mxEVVKhy-2" value="开始" style="rounded=1;whiteSpace=wrap;html=1;" vertex="1" parent="1">
          <mxGeometry x="368" y="30" width="66" height="40" as="geometry" />
        </mxCell>
        <mxCell id="PWp1Dongy2g5mxEVVKhy-3" value="" style="edgeStyle=orthogonalEdgeStyle;rounded=0;orthogonalLoop=1;jettySize=auto;html=1;" edge="1" parent="1" target="PWp1Dongy2g5mxEVVKhy-9">
          <mxGeometry relative="1" as="geometry">
            <mxPoint x="401" y="210" as="sourcePoint" />
          </mxGeometry>
        </mxCell>
        <mxCell id="PWp1Dongy2g5mxEVVKhy-5" value="校验参数" style="rhombus;whiteSpace=wrap;html=1;" vertex="1" parent="1">
          <mxGeometry x="361" y="130" width="80" height="80" as="geometry" />
        </mxCell>
        <mxCell id="PWp1Dongy2g5mxEVVKhy-6" value="" style="endArrow=classic;html=1;rounded=0;entryX=0.5;entryY=0;entryDx=0;entryDy=0;exitX=0.5;exitY=1;exitDx=0;exitDy=0;" edge="1" parent="1" source="PWp1Dongy2g5mxEVVKhy-2" target="PWp1Dongy2g5mxEVVKhy-5">
          <mxGeometry width="50" height="50" relative="1" as="geometry">
            <mxPoint x="410" y="90" as="sourcePoint" />
            <mxPoint x="460" y="40" as="targetPoint" />
          </mxGeometry>
        </mxCell>
        <mxCell id="PWp1Dongy2g5mxEVVKhy-7" value="" style="edgeStyle=orthogonalEdgeStyle;rounded=0;orthogonalLoop=1;jettySize=auto;html=1;" edge="1" parent="1" source="PWp1Dongy2g5mxEVVKhy-9" target="PWp1Dongy2g5mxEVVKhy-10">
          <mxGeometry relative="1" as="geometry" />
        </mxCell>
        <mxCell id="PWp1Dongy2g5mxEVVKhy-8" value="是" style="edgeLabel;html=1;align=center;verticalAlign=middle;resizable=0;points=[];" vertex="1" connectable="0" parent="PWp1Dongy2g5mxEVVKhy-7">
          <mxGeometry x="-0.2" y="-3" relative="1" as="geometry">
            <mxPoint x="3" as="offset" />
          </mxGeometry>
        </mxCell>
        <mxCell id="PWp1Dongy2g5mxEVVKhy-9" value="判断第一个子单品牌1688品牌" style="rhombus;whiteSpace=wrap;html=1;" vertex="1" parent="1">
          <mxGeometry x="361" y="280" width="80" height="80" as="geometry" />
        </mxCell>
        <mxCell id="PWp1Dongy2g5mxEVVKhy-10" value="判断标记状态是否为未付款或已退款" style="rhombus;whiteSpace=wrap;html=1;" vertex="1" parent="1">
          <mxGeometry x="361" y="440" width="80" height="80" as="geometry" />
        </mxCell>
        <mxCell id="PWp1Dongy2g5mxEVVKhy-11" value="" style="endArrow=classic;html=1;rounded=0;exitX=0.5;exitY=1;exitDx=0;exitDy=0;" edge="1" parent="1" source="PWp1Dongy2g5mxEVVKhy-10">
          <mxGeometry width="50" height="50" relative="1" as="geometry">
            <mxPoint x="410" y="590" as="sourcePoint" />
            <mxPoint x="401" y="599" as="targetPoint" />
          </mxGeometry>
        </mxCell>
        <mxCell id="PWp1Dongy2g5mxEVVKhy-22" value="否" style="edgeLabel;html=1;align=center;verticalAlign=middle;resizable=0;points=[];" vertex="1" connectable="0" parent="PWp1Dongy2g5mxEVVKhy-11">
          <mxGeometry x="-0.038" y="1" relative="1" as="geometry">
            <mxPoint x="-1" as="offset" />
          </mxGeometry>
        </mxCell>
        <mxCell id="PWp1Dongy2g5mxEVVKhy-13" value="保存订单状态为已打开和其他业务逻辑" style="whiteSpace=wrap;html=1;" vertex="1" parent="1">
          <mxGeometry x="363" y="598" width="78" height="50" as="geometry" />
        </mxCell>
        <mxCell id="PWp1Dongy2g5mxEVVKhy-14" value="" style="edgeStyle=orthogonalEdgeStyle;rounded=0;orthogonalLoop=1;jettySize=auto;html=1;exitX=1;exitY=0.5;exitDx=0;exitDy=0;entryX=1;entryY=0.5;entryDx=0;entryDy=0;" edge="1" parent="1" source="PWp1Dongy2g5mxEVVKhy-15" target="PWp1Dongy2g5mxEVVKhy-18">
          <mxGeometry relative="1" as="geometry">
            <mxPoint x="640" y="480" as="targetPoint" />
            <mxPoint x="468" y="620" as="sourcePoint" />
          </mxGeometry>
        </mxCell>
        <mxCell id="PWp1Dongy2g5mxEVVKhy-15" value="提示该笔订单没标记付款，不可以打开" style="rounded=0;whiteSpace=wrap;html=1;" vertex="1" parent="1">
          <mxGeometry x="500" y="455" width="98" height="50" as="geometry" />
        </mxCell>
        <mxCell id="PWp1Dongy2g5mxEVVKhy-16" value="" style="endArrow=classic;html=1;rounded=0;entryX=0;entryY=0.5;entryDx=0;entryDy=0;exitX=0;exitY=0.5;exitDx=0;exitDy=0;" edge="1" parent="1" target="PWp1Dongy2g5mxEVVKhy-13" source="PWp1Dongy2g5mxEVVKhy-9">
          <mxGeometry width="50" height="50" relative="1" as="geometry">
            <mxPoint x="441" y="319" as="sourcePoint" />
            <mxPoint x="428" y="815" as="targetPoint" />
            <Array as="points">
              <mxPoint x="250" y="320" />
              <mxPoint x="250" y="623" />
            </Array>
          </mxGeometry>
        </mxCell>
        <mxCell id="PWp1Dongy2g5mxEVVKhy-17" value="否" style="edgeLabel;html=1;align=center;verticalAlign=middle;resizable=0;points=[];" vertex="1" connectable="0" parent="PWp1Dongy2g5mxEVVKhy-16">
          <mxGeometry x="-0.8802" y="-2" relative="1" as="geometry">
            <mxPoint x="-15" y="2" as="offset" />
          </mxGeometry>
        </mxCell>
        <mxCell id="PWp1Dongy2g5mxEVVKhy-18" value="结束" style="rounded=1;whiteSpace=wrap;html=1;" vertex="1" parent="1">
          <mxGeometry x="375" y="688" width="49" height="30" as="geometry" />
        </mxCell>
        <mxCell id="PWp1Dongy2g5mxEVVKhy-19" value="" style="endArrow=classic;html=1;rounded=0;" edge="1" parent="1">
          <mxGeometry width="50" height="50" relative="1" as="geometry">
            <mxPoint x="440" y="479" as="sourcePoint" />
            <mxPoint x="500" y="479" as="targetPoint" />
          </mxGeometry>
        </mxCell>
        <mxCell id="PWp1Dongy2g5mxEVVKhy-25" value="是" style="edgeLabel;html=1;align=center;verticalAlign=middle;resizable=0;points=[];" vertex="1" connectable="0" parent="PWp1Dongy2g5mxEVVKhy-19">
          <mxGeometry relative="1" as="geometry">
            <mxPoint as="offset" />
          </mxGeometry>
        </mxCell>
        <mxCell id="PWp1Dongy2g5mxEVVKhy-28" value="" style="endArrow=classic;html=1;rounded=0;entryX=0.5;entryY=0;entryDx=0;entryDy=0;" edge="1" parent="1" target="PWp1Dongy2g5mxEVVKhy-18">
          <mxGeometry width="50" height="50" relative="1" as="geometry">
            <mxPoint x="400" y="650" as="sourcePoint" />
            <mxPoint x="400" y="680" as="targetPoint" />
          </mxGeometry>
        </mxCell>
      </root>
    </mxGraphModel>
  </diagram>
</mxfile>
